<?xml version="1.0" encoding="UTF-8" standalone="no"?>
<!DOCTYPE svg PUBLIC "-//W3C//DTD SVG 1.1//EN" "http://www.w3.org/Graphics/SVG/1.1/DTD/svg11.dtd">
<svg version="1.1" xmlns="http://www.w3.org/2000/svg" xmlns:xlink="http://www.w3.org/1999/xlink" preserveAspectRatio="xMidYMid meet" viewBox="0 0 150 150" width="150" height="150"><defs><path d="M44.62 50.19L45.03 50.43L43.24 51.44C43.22 51.99 43.2 52.29 43.2 52.35C43.2 52.35 41.47 62.69 43.39 66.95C43.39 66.95 46.57 67.79 48.81 65.39C48.63 64.56 47.7 60.44 46.03 53.03L45.74 52.02L49.52 49.94L49.43 50.73L46.71 52.57L48.24 52.67L66.84 53.01L82.41 42.83L92.77 35.38L60.96 32.6L35.5 51.86L42.23 52.29L42.43 51.03L44.62 50.19ZM67.41 41.8C67.75 42.98 66.46 44.39 64.52 44.95C62.58 45.51 60.73 45 60.39 43.82C60.05 42.63 61.35 41.22 63.29 40.66C65.22 40.11 67.07 40.61 67.41 41.8ZM45.73 64.87C45.73 64.87 45.09 61.46 45.06 57.74C45.14 58.2 45.58 60.52 46.37 64.69C45.98 64.8 45.77 64.86 45.73 64.87Z" id="cMbDX8hyX"></path><path d="M105.05 93.9L105.05 57.35C92.79 57.35 85.98 57.35 84.62 57.35C85.5 56.02 85.84 54.71 85.5 53.53C85.49 53.49 85.47 53.46 85.46 53.43C85.3 52.85 84.46 49.96 82.96 44.75L67.39 54.92L48.79 54.58L50.28 59.76C50.91 61.92 51.25 63.13 51.32 63.37C51.66 64.54 52.63 65.45 54.04 66.11C54.04 67.96 54.04 77.22 54.04 93.9L38.81 103.41L38.81 107.6L120.28 107.6L120.28 103.41L105.05 93.9ZM79.51 61.91C80.89 61.91 87.75 61.91 100.1 61.91L100.1 89.51L57.84 89.51C57.84 76.08 57.84 68.62 57.84 67.13C61.32 67.56 65.82 67.16 70.53 65.8C73.97 64.81 77.05 63.44 79.51 61.91ZM103.3 95.23L110.19 100.18L48.9 100.18L55.78 95.23L103.3 95.23Z" id="a1FXl2uMG"></path></defs><g><g><g><use xlink:href="#cMbDX8hyX" opacity="1" fill="#ffffff" fill-opacity="1"></use><g><use xlink:href="#cMbDX8hyX" opacity="1" fill-opacity="0" stroke="#000000" stroke-width="1" stroke-opacity="0"></use></g></g><g><use xlink:href="#a1FXl2uMG" opacity="1" fill="#ffffff" fill-opacity="1"></use><g><use xlink:href="#a1FXl2uMG" opacity="1" fill-opacity="0" stroke="#000000" stroke-width="1" stroke-opacity="0"></use></g></g></g></g></svg>