<?xml version="1.0" encoding="UTF-8" standalone="no"?>
<!DOCTYPE svg PUBLIC "-//W3C//DTD SVG 1.1//EN" "http://www.w3.org/Graphics/SVG/1.1/DTD/svg11.dtd">
<svg version="1.1" xmlns="http://www.w3.org/2000/svg" xmlns:xlink="http://www.w3.org/1999/xlink" preserveAspectRatio="xMidYMid meet" viewBox="0 0 150 150" width="150" height="150"><defs><path d="M56.52 51.93C56.52 48.18 53.47 45.13 49.71 45.13C45.95 45.13 42.91 48.18 42.91 51.93C42.91 55.69 45.95 58.74 49.71 58.74C53.47 58.74 56.52 55.69 56.52 51.93Z" id="c3bzTD4lSv"></path><path d="M32.16 91.01C30.97 91.01 30 91.98 30 93.17C30 94.07 30 101.23 30 102.13C30 103.32 30.97 104.28 32.16 104.28C33.56 104.28 44.76 104.28 46.16 104.28C47.35 104.28 48.32 103.32 48.32 102.13C48.32 101.23 48.32 94.07 48.32 93.17C48.32 91.98 47.35 91.01 46.16 91.01C43.36 91.01 33.56 91.01 32.16 91.01Z" id="b6sLZ0oYCl"></path><path d="M114.77 97.98C113.78 98.98 112.04 98.99 111.03 97.98C108.87 95.82 105.67 95.09 102.78 95.75C89.1 70 89.29 53.04 89.53 49.43C89.74 49.28 91.38 48.04 91.58 47.88C92.25 47.37 92.39 46.41 91.88 45.74C91.37 45.06 90.41 44.93 89.73 45.44C87.34 47.26 68.19 61.79 65.79 63.61C64.87 62.7 63.46 62.42 62.25 63.06C61.73 63.34 59.14 64.71 54.48 67.18C50.96 64.43 49 62.9 48.61 62.6C47.91 61.29 46.9 60.37 45.38 59.73C44.96 59.55 43.56 59.12 42.2 59.44C40.15 59.91 38.28 61.18 37.49 63.29C37.49 63.29 32.09 77.69 30.36 82.33C29.01 85.98 31.7 89.39 34.22 89.39C34.23 89.39 34.24 89.39 34.24 89.39C35.23 89.39 40.15 89.36 49.01 89.32C51.99 96.83 53.64 101 53.97 101.84C54.69 103.64 56.41 104.74 58.24 104.74C58.8 104.74 59.37 104.63 59.93 104.41C62.29 103.48 63.44 100.81 62.51 98.45C61.89 96.91 57 84.56 56.39 83.02C55.69 81.27 54 80.12 52.12 80.12C52.11 80.12 52.1 80.12 52.1 80.12C51.57 80.13 48.96 80.14 44.24 80.16L48.07 69.94C50.59 71.91 51.99 73.01 52.27 73.23C52.82 73.65 53.49 73.87 54.16 73.87C54.65 73.87 55.14 73.76 55.59 73.52C56.54 73.01 64.16 68.98 65.12 68.47C65.76 68.13 66.2 67.57 66.46 66.94C68.61 65.31 85.78 52.28 87.93 50.65C87.76 56.26 88.69 72.4 101.3 96.22C100.32 96.64 99.41 97.21 98.63 97.99C97.65 98.97 95.89 98.97 94.9 97.99C91.59 94.67 85.82 94.67 82.51 97.98C81.5 98.98 79.76 98.98 78.76 97.98C77.57 96.79 75.63 96.79 74.44 97.98C73.24 99.18 73.24 101.11 74.44 102.31C77.85 105.73 83.41 105.73 86.83 102.31C87.83 101.31 89.57 101.31 90.58 102.31C92.23 103.97 94.43 104.88 96.77 104.88C99.11 104.88 101.31 103.97 102.97 102.31C103.97 101.31 105.7 101.3 106.71 102.31C110.12 105.73 115.68 105.73 119.1 102.31C120.3 101.11 120.3 99.18 119.1 97.98C117.91 96.79 115.96 96.79 114.77 97.98Z" id="d1s4DfbMr7"></path></defs><g><g><g><use xlink:href="#c3bzTD4lSv" opacity="1" fill="#ffffff" fill-opacity="1"></use><g><use xlink:href="#c3bzTD4lSv" opacity="1" fill-opacity="0" stroke="#000000" stroke-width="1" stroke-opacity="0"></use></g></g><g><use xlink:href="#b6sLZ0oYCl" opacity="1" fill="#ffffff" fill-opacity="1"></use><g><use xlink:href="#b6sLZ0oYCl" opacity="1" fill-opacity="0" stroke="#000000" stroke-width="1" stroke-opacity="0"></use></g></g><g><use xlink:href="#d1s4DfbMr7" opacity="1" fill="#ffffff" fill-opacity="1"></use><g><use xlink:href="#d1s4DfbMr7" opacity="1" fill-opacity="0" stroke="#000000" stroke-width="1" stroke-opacity="0"></use></g></g></g></g></svg>