<?xml version="1.0" encoding="UTF-8" standalone="no"?>
<!DOCTYPE svg PUBLIC "-//W3C//DTD SVG 1.1//EN" "http://www.w3.org/Graphics/SVG/1.1/DTD/svg11.dtd">
<svg version="1.1" xmlns="http://www.w3.org/2000/svg" xmlns:xlink="http://www.w3.org/1999/xlink" preserveAspectRatio="xMidYMid meet" viewBox="0 0 150 150" width="150" height="150"><defs><path d="M71.98 37.5C76.06 37.5 79.37 40.81 79.37 44.89C79.37 48.97 76.06 52.28 71.98 52.28C67.9 52.28 64.59 48.97 64.59 44.89C64.59 40.81 67.9 37.5 71.98 37.5ZM103.7 53.39L100.4 52.75L97.2 69.42C92.09 69.42 89.26 69.42 88.69 69.42C88.72 69.23 88.75 69.02 88.75 68.82C88.76 66.78 87.11 65.11 85.07 65.1C84.1 65.1 79.23 65.08 70.48 65.04C68.09 58.62 66.76 55.06 66.49 54.35C65.76 51.59 63.92 49.67 60.72 49.67C57.3 49.67 55.01 52.78 53.83 55.98C51.48 62.36 49.8 73.12 50.48 80.1C50.85 83.36 51.73 86.04 53.93 87.23C53.52 87.23 51.47 87.23 47.78 87.23L47.78 64.83L43.08 64.83L43.08 112.44L47.78 112.44L47.78 91.94L69.97 91.94C68.11 101.13 67.08 106.24 66.87 107.26C66.4 109.63 67.93 111.93 70.29 112.41C70.58 112.47 70.88 112.5 71.16 112.5C73.2 112.5 75.02 111.07 75.44 108.99C75.62 108.09 76.53 103.59 78.16 95.5C80.42 101.56 81.68 104.93 81.93 105.6C82.59 107.36 84.25 108.45 86.03 108.45C86.53 108.45 87.05 108.36 87.55 108.17C89.81 107.33 90.96 104.81 90.12 102.55C89.35 100.5 83.22 84.06 82.46 82.01C81.82 80.3 80.19 79.17 78.37 79.17C77.6 79.17 73.79 79.17 66.92 79.17L66.92 76.48L102.23 76.48L102.23 112.44L106.93 112.44L106.93 71.44L100.23 71.44L103.7 53.39Z" id="h12wPvNHch"></path></defs><g><g><g><use xlink:href="#h12wPvNHch" opacity="1" fill="#ffffff" fill-opacity="1"></use><g><use xlink:href="#h12wPvNHch" opacity="1" fill-opacity="0" stroke="#000000" stroke-width="1" stroke-opacity="0"></use></g></g></g></g></svg>